<svg id="Layer_1" data-name="Layer 1" xmlns="http://www.w3.org/2000/svg" xmlns:xlink="http://www.w3.org/1999/xlink" viewBox="0 0 519.69 427.18"><defs><linearGradient id="linear-gradient" x1="270.32" y1="271.5" x2="275.05" y2="141.6" gradientUnits="userSpaceOnUse"><stop offset="0.01"/><stop offset="0.13" stop-opacity="0.69"/><stop offset="1" stop-opacity="0"/></linearGradient><linearGradient id="linear-gradient-2" x1="301.62" y1="220.79" x2="382.51" y2="119.15" xlink:href="#linear-gradient"/><linearGradient id="linear-gradient-3" x1="226.45" y1="214.54" x2="210.81" y2="164.32" xlink:href="#linear-gradient"/><linearGradient id="linear-gradient-4" x1="208.96" y1="205.89" x2="276.38" y2="136.92" xlink:href="#linear-gradient"/><linearGradient id="linear-gradient-5" x1="244.35" y1="404.47" x2="299.15" y2="231.27" xlink:href="#linear-gradient"/><linearGradient id="linear-gradient-6" x1="253.03" y1="215.83" x2="235.89" y2="366.49" xlink:href="#linear-gradient"/><linearGradient id="linear-gradient-7" x1="330.05" y1="201.24" x2="335.46" y2="310.4" xlink:href="#linear-gradient"/><linearGradient id="linear-gradient-8" x1="227.47" y1="196.52" x2="227.02" y2="309.28" xlink:href="#linear-gradient"/><linearGradient id="linear-gradient-9" x1="163.76" y1="293.45" x2="161.06" y2="439.59" xlink:href="#linear-gradient"/><linearGradient id="linear-gradient-10" x1="373.43" y1="323.48" x2="404.1" y2="393.85" xlink:href="#linear-gradient"/><linearGradient id="linear-gradient-11" x1="211.34" y1="445.04" x2="278.1" y2="329.57" xlink:href="#linear-gradient"/></defs><title>Dream 3</title><path d="M517.19,299a198.55,198.55,0,0,1-23.64,66.4c-48.36,83.81-161.79,93.11-249.27,100-20.36,1.61-40.86,3.21-61.17,1.05-44.72-4.76-85.92-27.69-119.88-57.16-25.94-22.5-48.95-50-58.56-83s-3.5-72,21.57-95.41A84.43,84.43,0,0,1,34,224.46c17.06-12.47,38.25-19,57.13-29a112.48,112.48,0,0,0,17.26-11.06c29.32-23.21,40.66-62.47,65.54-90.39C214.68,48.26,293.2,25,350.31,51.44c14.13,6.54,24.27,17.74,37.13,25.24,16.11,9.38,33.53,14.75,49,25.92,31,22.34,55.79,53.39,69.86,89A198.69,198.69,0,0,1,520,262,206.28,206.28,0,0,1,517.19,299Z" transform="translate(-0.35 -40.3)" fill="#caa472" opacity="0.42" style="isolation:isolate"/><path d="M517.19,299a198.55,198.55,0,0,1-23.64,66.4c-48.36,83.81-161.79,93.11-249.27,100-20.36,1.61-40.86,3.21-61.17,1.05-44.72-4.76-85.92-27.69-119.88-57.16-25.94-22.5-48.95-50-58.56-83s-3.5-72,21.57-95.41A84.43,84.43,0,0,1,34,224.46c17.06-12.47,38.25-19,57.13-29,9.2,4,18.38,7.93,28.18,9.82,26.22,5.07,53.09-5.42,79.74-3.69,22.53,1.47,43.48,11.52,63.95,21,55.53,25.84,115.78,49.55,176.43,40.9,17.42-2.49,34.66-7.65,52.22-6.85,9.66.44,19,2.66,28.36,5.33A206.28,206.28,0,0,1,517.19,299Z" transform="translate(-0.35 -40.3)" fill="#caa472" opacity="0.42" style="isolation:isolate"/><path d="M517.19,299a198.55,198.55,0,0,1-23.64,66.4c-48.36,83.81-161.79,93.11-249.27,100-20.36,1.61-40.86,3.21-61.17,1.05-44.72-4.76-85.92-27.69-119.88-57.16-25.94-22.5-48.95-50-58.56-83s-3.5-72,21.57-95.41A84.43,84.43,0,0,1,34,224.46a95,95,0,0,1,47.33,2.19c13.07,4.18,25.13,11.5,38.6,14.1,21.9,4.23,44.33-4.52,66.58-3.07,18.82,1.21,36.31,9.61,53.4,17.56,46.38,21.58,96.69,41.38,147.33,34.15,14.55-2.08,28.94-6.38,43.62-5.71,15.44.69,30,6.84,45,10.66A151.85,151.85,0,0,0,517.19,299Z" transform="translate(-0.35 -40.3)" fill="#caa472" opacity="0.42" style="isolation:isolate"/><path d="M99.05,355.9c1.38,1.35,3.13,2.26,4.58,3.54,9,7.92,2.08,23.34,6.81,34.35,4.8,11.17,19.26,13.76,31.4,14.15,45.85,1.5,92.23-5.88,137.35,2.35,13.25,2.42,26.79,6.18,40,3.35,6.52-1.39,12.6-4.35,19-6.35,30.7-9.64,65.74,3.56,95.45-8.79-7.27-24.44,8.36-49.85,8-75.36a9.23,9.23,0,0,0-1.16-5.11c-1.65-2.42-5-2.9-7.87-3.12-55.28-4.11-110.58,6.21-166,7.09-33.82.53-67.64-2.38-101.45-.77-16.92.81-33.84,2.74-50.29,6.89-7.46,1.87-13.09,2.4-16.7,9.35C95.23,342.89,94.32,351.32,99.05,355.9Z" transform="translate(-0.35 -40.3)" fill="#caa472"/><path d="M174.82,207.81c-5,3.46-8.1,8.94-11.06,14.23l-55.57,99.41c2.87,3.65,7.53,5.32,12,6.66,40,12,82.63,11.49,124.36,9.41,15.75-.78,31.48-1.77,47.21-2.76,10.33-.64,20.66-1.29,31-2.14a797.17,797.17,0,0,0,89.69-12.55c7.62-1.51,17.06-5.29,16.9-13.06-.06-3-1.73-5.78-3.37-8.34-19-29.64-40.51-57.52-62-85.34a15.13,15.13,0,0,0-3.77-3.84c-2-1.26-4.54-1.48-6.94-1.65A1252.86,1252.86,0,0,0,207,205.57C197.87,206,182.49,202.46,174.82,207.81Z" transform="translate(-0.35 -40.3)" fill="#caa472"/><path d="M174.82,207.81c-5,3.46-8.1,8.94-11.06,14.23l-55.57,99.41c2.87,3.65,7.53,5.32,12,6.66,40,12,82.63,11.49,124.36,9.41,15.75-.78,31.48-1.77,47.21-2.76,10.33-.64,20.66-1.29,31-2.14a797.17,797.17,0,0,0,89.69-12.55c7.62-1.51,17.06-5.29,16.9-13.06-.06-3-1.73-5.78-3.37-8.34-19-29.64-40.51-57.52-62-85.34a15.13,15.13,0,0,0-3.77-3.84c-2-1.26-4.54-1.48-6.94-1.65A1252.86,1252.86,0,0,0,207,205.57C197.87,206,182.49,202.46,174.82,207.81Z" transform="translate(-0.35 -40.3)" opacity="0.58" fill="url(#linear-gradient)"/><path d="M284.35,183c-.29-2.25-.51-5,1.48-6.24s4.42-.26,6.69.19c4.15.81,8.37-.15,12.45-1a205.68,205.68,0,0,1,43.9-4.06,5.3,5.3,0,0,1,1.94.27c2.36,1,1.82,4.13,1,6.32a77.51,77.51,0,0,0-3.46,44.14c.33,1.56.59,3.46-.73,4.42a5,5,0,0,1-3.33.48l-55.46-4.77c-3.2-.28-9.45-.83-10.56-4.5-.76-2.51,2.2-6,3.06-8.3A56.06,56.06,0,0,0,284.35,183Z" transform="translate(-0.35 -40.3)" fill="#caa472"/><path d="M284.35,183c-.29-2.25-.51-5,1.48-6.24s4.42-.26,6.69.19c4.15.81,8.37-.15,12.45-1a205.68,205.68,0,0,1,43.9-4.06,5.3,5.3,0,0,1,1.94.27c2.36,1,1.82,4.13,1,6.32a77.51,77.51,0,0,0-3.46,44.14c.33,1.56.59,3.46-.73,4.42a5,5,0,0,1-3.33.48l-55.46-4.77c-3.2-.28-9.45-.83-10.56-4.5-.76-2.51,2.2-6,3.06-8.3A56.06,56.06,0,0,0,284.35,183Z" transform="translate(-0.35 -40.3)" opacity="0.58" fill="url(#linear-gradient-2)"/><path d="M194.79,173.58a2.35,2.35,0,0,0-2.29,0,1.91,1.91,0,0,0-.54,1c-.55,2.33.68,4.68.88,7.06a17.23,17.23,0,0,1-.61,5.09,115.16,115.16,0,0,0-2.45,20.68c-.07,2.81-.05,5.68-1,8.32-.61,1.68-1.58,3.57-.71,5.13s3.25,1.7,5.16,1.73a26.52,26.52,0,0,1,7.7,1.26c2.35.75,4.67,1.84,7.14,1.88a17,17,0,0,0,5-.91l7.8-2.24a73.37,73.37,0,0,0,9.12-3c2.08-.9,4.08-2,6.19-2.84,2.67-1.08,5.49-1.73,8.23-2.64a91.33,91.33,0,0,0,9.6-4,3.4,3.4,0,0,0,1.56-1.14,3,3,0,0,0,.33-1.39c.16-3.14-.82-6.24-1-9.38-.18-3.81.87-7.56,1.63-11.3.52-2.54.75-5.61-1.23-7.28a5.74,5.74,0,0,0-5.23-.69c-1.77.5-3.37,1.45-5.11,2-4.11,1.36-8.59.57-12.85-.25-5.76-1.12-11.56-2.67-17.37-3.41-3.75-.48-7.35.25-11.09-.63A84.73,84.73,0,0,1,194.79,173.58Z" transform="translate(-0.35 -40.3)" fill="#caa472"/><path d="M194.79,173.58a2.35,2.35,0,0,0-2.29,0,1.91,1.91,0,0,0-.54,1c-.55,2.33.68,4.68.88,7.06a17.23,17.23,0,0,1-.61,5.09,115.16,115.16,0,0,0-2.45,20.68c-.07,2.81-.05,5.68-1,8.32-.61,1.68-1.58,3.57-.71,5.13s3.25,1.7,5.16,1.73a26.52,26.52,0,0,1,7.7,1.26c2.35.75,4.67,1.84,7.14,1.88a17,17,0,0,0,5-.91l7.8-2.24a73.37,73.37,0,0,0,9.12-3c2.08-.9,4.08-2,6.19-2.84,2.67-1.08,5.49-1.73,8.23-2.64a91.33,91.33,0,0,0,9.6-4,3.4,3.4,0,0,0,1.56-1.14,3,3,0,0,0,.33-1.39c.16-3.14-.82-6.24-1-9.38-.18-3.81.87-7.56,1.63-11.3.52-2.54.75-5.61-1.23-7.28a5.74,5.74,0,0,0-5.23-.69c-1.77.5-3.37,1.45-5.11,2-4.11,1.36-8.59.57-12.85-.25-5.76-1.12-11.56-2.67-17.37-3.41-3.75-.48-7.35.25-11.09-.63A84.73,84.73,0,0,1,194.79,173.58Z" transform="translate(-0.35 -40.3)" opacity="0.58" fill="url(#linear-gradient-3)"/><path d="M229,178.6s21.31-12.92,27-15,6.9,17.15,6.9,17.15-1,20.7.36,23-14.2-4.11-14.2-4.11l2.57-20.06s-11.43,2.11-13.47,3.71-10,.08-9.81-2.4S229,178.6,229,178.6Z" transform="translate(-0.35 -40.3)" fill="#fcc5a7"/><path d="M219.25,207.79a7.19,7.19,0,0,1,.94,4.58c-.24,1.86-1.21,3.55-1.72,5.35a11.29,11.29,0,0,0,1,8.39c1.07,1.93,2.69,3.52,3.72,5.47a4.59,4.59,0,0,1,.63,2.92,5.07,5.07,0,0,0-.35,1.86c.18,1,1.39,1.46,2.42,1.61a16,16,0,0,0,9.62-1.65c4.6-2.4,7.71-6.83,11-10.8s7.49-7.86,12.65-8.37a40.35,40.35,0,0,0,4.12-.31,4.06,4.06,0,0,0,3.15-2.36,5.45,5.45,0,0,0,0-2.72c-.21-1.12-.43-2.23-.66-3.34a9.51,9.51,0,0,0-1.21-3.42c-1.51-2.21-4.45-2.77-6.91-3.84-2.94-1.28-5.51-3.52-8.67-4.08s-6.14.61-8.87,2.07-5.28,3.29-8.2,4.3a49.85,49.85,0,0,0-6.17,2.34A21.76,21.76,0,0,1,219.25,207.79Z" transform="translate(-0.35 -40.3)" fill="#caa472"/><path d="M208.39,195.48c-2.67-2.16-5.2-4.93-5.53-8.34a11.83,11.83,0,0,1,.85-5.14c.83-2.27,2.26-4.62,4.61-5.21a4,4,0,0,0,2.76-1.25,7.14,7.14,0,0,1,4.36-1.06,24,24,0,0,1,15.12,5.57c1.71,1.44,3.28,3.15,5.36,4a25.41,25.41,0,0,0,5.44,1c2.68.44,5.38,1.68,6.8,4a7.09,7.09,0,0,1,.58,6.12,7.61,7.61,0,0,1-4.35,4.37c-1,.4-2.12.58-3.14,1a20.64,20.64,0,0,0-3,1.73c-4.14,2.55-8.92,3.85-13.61,5.11a8.83,8.83,0,0,1-3.33.45,6.59,6.59,0,0,1-4.45-3.23c-1-1.58-1.71-3.38-2.7-5a14.5,14.5,0,0,0-7.35-6" transform="translate(-0.35 -40.3)" fill="#403c58"/><path d="M208.39,195.48c-2.67-2.16-5.2-4.93-5.53-8.34a11.83,11.83,0,0,1,.85-5.14c.83-2.27,2.26-4.62,4.61-5.21a4,4,0,0,0,2.76-1.25,7.14,7.14,0,0,1,4.36-1.06,24,24,0,0,1,15.12,5.57c1.71,1.44,3.28,3.15,5.36,4a25.41,25.41,0,0,0,5.44,1c2.68.44,5.38,1.68,6.8,4a7.09,7.09,0,0,1,.58,6.12,7.61,7.61,0,0,1-4.35,4.37c-1,.4-2.12.58-3.14,1a20.64,20.64,0,0,0-3,1.73c-4.14,2.55-8.92,3.85-13.61,5.11a8.83,8.83,0,0,1-3.33.45,6.59,6.59,0,0,1-4.45-3.23c-1-1.58-1.71-3.38-2.7-5a14.5,14.5,0,0,0-7.35-6" transform="translate(-0.35 -40.3)" opacity="0.58" fill="url(#linear-gradient-4)"/><path d="M206.24,191c1.21,4.35,4.61,7.79,8.37,10.28a16,16,0,0,0,4.36,2.17,20.38,20.38,0,0,1,4.41,1.29c1.2.67,2.08,1.79,3.24,2.51,2.15,1.36,5,1.16,7.37.3a8.49,8.49,0,0,0,3.42-2.06,4.67,4.67,0,0,0,1.37-3.66,7.56,7.56,0,0,0-1.68-3.4l-3.35-4.62c-1.11-1.53-2.27-3.2-2.24-5.09,0-1.44.77-2.82.67-4.27a3.74,3.74,0,0,0-5.76-2.87,1.58,1.58,0,0,1-1,.41,1.46,1.46,0,0,1-.55-.29,21.68,21.68,0,0,0-7.19-4.09C210,175.55,204.32,184.12,206.24,191Z" transform="translate(-0.35 -40.3)" fill="#fcc5a7"/><path d="M212.9,208a5.11,5.11,0,0,0-1.5.34,4.8,4.8,0,0,0-1.49,1.17,14.24,14.24,0,0,0-2.06,2.86c-.75,1.37-1.28,2.85-1.91,4.28-2.35,5.33-6.2,9.93-8.21,15.4a4.65,4.65,0,0,0-.35,1.55,3.79,3.79,0,0,0,.85,2.13c2,2.72,5.5,3.93,8.86,4.27a21,21,0,0,0,3.36.05c5.82-.44,11-3.88,15.38-7.71s8.41-8.22,13.43-11.2a46.83,46.83,0,0,1,9.67-4.1,3.91,3.91,0,0,0,1.57-.77,1.34,1.34,0,0,0,.35-1.59,1.86,1.86,0,0,0-1-.67,18.3,18.3,0,0,0-15.14,1.3,13.83,13.83,0,0,1-3.42,1.7,8.08,8.08,0,0,0-1.08.26,6,6,0,0,0-2,1.69c-3.12,3.29-7.69,4.69-12,6a18.31,18.31,0,0,1,2.09-6.75,14.79,14.79,0,0,0,2-4.3c.26-1.43,0-4.45-1.12-5.56S214.4,207.83,212.9,208Z" transform="translate(-0.35 -40.3)" fill="#fcc5a7"/><path d="M151.27,248.82c12.39-1.19,23.14-10.63,35.58-10.45,4.74.06,9.33,1.55,14,2.26a43.88,43.88,0,0,0,31-7,124.16,124.16,0,0,0,10.68-8.78c6.24-5.34,13.37-10.3,21.54-11.1,15.09-1.47,28.58,11.52,43.72,10.78,7.62-.37,14.73-4.23,22.35-4.75,3-.21,6.22.19,8.55,2.1s3.31,5.65,1.43,8c-2.39,3,36-3.51,39.4-1.8,9.53,4.74.4,7.11,10.79,9.46,9.07,2.06,4.1,2.55,10.4,9.39-13.06,2.81,51.91,72.27,38.65,73.9-18,2.21-46.85,16.62-64.89,14.64-7.05-.77-14.3-.86-21.1,1.15-4.6,1.36-15.08-5.93-19.56-4.22-21.18,8.12-207.42,11-229.54,6-21.79-4.93,28.65-69.27,38.48-84.13C143.66,251.25,148.19,249.12,151.27,248.82Z" transform="translate(-0.35 -40.3)" fill="#caa472"/><path d="M151.27,248.82c12.39-1.19,23.14-10.63,35.58-10.45,4.74.06,9.33,1.55,14,2.26a43.88,43.88,0,0,0,31-7,124.16,124.16,0,0,0,10.68-8.78c6.24-5.34,13.37-10.3,21.54-11.1,15.09-1.47,28.58,11.52,43.72,10.78,7.62-.37,14.73-4.23,22.35-4.75,3-.21,6.22.19,8.55,2.1s3.31,5.65,1.43,8c-2.39,3,36-3.51,39.4-1.8,9.53,4.74.4,7.11,10.79,9.46,9.07,2.06,4.1,2.55,10.4,9.39-13.06,2.81,51.91,72.27,38.65,73.9-18,2.21-46.85,16.62-64.89,14.64-7.05-.77-14.3-.86-21.1,1.15-4.6,1.36-15.08-5.93-19.56-4.22-21.18,8.12-207.42,11-229.54,6-21.79-4.93,28.65-69.27,38.48-84.13C143.66,251.25,148.19,249.12,151.27,248.82Z" transform="translate(-0.35 -40.3)" opacity="0.58" fill="url(#linear-gradient-5)"/><path d="M267.44,231.21c3.39.94,6.68,2.2,10,3.25,4,1.26,8.32,2.23,12.46,1.38,3.59-.73,6.87-2.79,10.52-3.08,5.56-.44,10.9,3.33,16.42,2.56,4.21-.57,7.83-3.71,12.07-3.83,4.73-.14,9.57.48,14.38.36l15.07-.37a90.22,90.22,0,0,1,13.36.33c3.24.4,6.87,1.07,9.5-.87a1,1,0,0,0,.45-.61,1.06,1.06,0,0,0-.26-.66,17.11,17.11,0,0,0-7.18-5.81c-3.52-1.5-7.42-1.74-11.24-2l-26.6-1.54c-2.24-.13-3.3-.94-5.18-1.76-1.59-.7-3.23-.56-5-.54-4.21,0-8.42.21-12.63.35-8.52.27-17.16.45-25.57-1.18-5.91-1.15-11.47-3.68-17.36-4.93-7-1.49-13.49,1.91-20.32,4.19-11.3,3.77-20.21,11.25-30.81,16.24-5.35,2.52-11.37,4-17.22,3.06-3.48-.55-6.83-1.91-10.35-2.09-3.77-.19-7.45,1-11,2.19q-16.62,5.53-33,11.82c.27,2.41,3.59,2.85,6,2.52,17.16-2.31,33.59-9.49,50.9-9.92,3.45-.08,6.92.1,10.35-.24,8.94-.89,14.84-6.95,23.05-9A57.45,57.45,0,0,1,267.44,231.21Z" transform="translate(-0.35 -40.3)" fill="#fff"/><path d="M258.42,297.25c-17.25-5.29-33.75-13.49-51.61-16-20.06-2.86-40.4,1.61-59.95,7-14,3.83-28.72,8.66-38,19.83-4.61,5.55-7.53,12.28-10.38,18.91-.77,1.78-1.54,3.82-.74,5.58a6.49,6.49,0,0,0,2.78,2.63c11.75,7.07,26.11,7.9,39.82,8.15,33.3.63,66.6-1,99.87-2.57,21-1,42-2,62.69-5.63,17.42-3,34.68-7.93,52.37-8,5.73,0,11.56.48,17.1-1s10.88-5.44,11.94-11.07a4.7,4.7,0,0,0-.42-3.46,5.94,5.94,0,0,0-3.47-2c-18.61-5.45-38.57-8.05-57.71-6.07A162.9,162.9,0,0,1,258.42,297.25Z" transform="translate(-0.35 -40.3)" opacity="0.58" fill="url(#linear-gradient-6)"/><path d="M358.08,246.45c-8.35-.29-17.07-.51-24.63,3.05-4.1,1.93-7.66,4.9-11.87,6.57-4.56,1.82-9.58,2-14.48,2.18l-53.39,1.83c-2.9.1-6.55.78-7.22,3.6C255.42,270,264.9,276,275.58,278.4c7.55,1.69,15.36,1.49,23.09,1.26,27-.78,55.12-1.53,79.7,9.68,12.89,5.87,24.69,15,38.7,17a5,5,0,0,0,3.41-.36c2.1-1.35,1.28-4.59,0-6.73-6.39-10.7-18.39-18.06-21.75-30.06-2.24-8-1.06-18-10.3-21.57C380.13,244.45,366.76,246.75,358.08,246.45Z" transform="translate(-0.35 -40.3)" opacity="0.58" fill="url(#linear-gradient-7)"/><path d="M199.63,248.18c-6,.07-11.9-1.19-17.87-1.29a75.5,75.5,0,0,0-18.58,2.49c-8.36,2-17.34,5.08-21.78,12.44,9.11.61,17.48-4.67,26.4-6.62,10.38-2.28,21.16,0,31.53,2.33.44,2.85-3.29,4.28-6.15,4.63l-29.75,3.73c3.18,3.73,8.9,3.56,13.78,3.07l25.21-2.51a29.29,29.29,0,0,1,8.72,0,29.46,29.46,0,0,1,6,2.16L250,283.27c8.48,3.78,17.45,7.65,26.69,6.7-16.64-12.27-36.86-18.88-53.74-30.82a2.88,2.88,0,0,1-1.4-1.7c-.17-1,.68-1.85,1.48-2.47,7.4-5.75,16.78-8.48,26.1-9.49s18.73-.4,28.11-.16q15.68.39,31.35-.58c2.11-.13,5-1.17,4.51-3.24-.51-2.32-53.25-3.13-59-3.25C235.06,237.85,218.29,248,199.63,248.18Z" transform="translate(-0.35 -40.3)" opacity="0.58" fill="url(#linear-gradient-8)"/><path d="M130.25,359.56c-6.61-2.07-15.45-3.3-19,2.66-1.77,3-1.37,6.75-.91,10.21,1.12,8.38,2.94,17.9,10.18,22.28a25.39,25.39,0,0,0,8.08,2.77c10.06,2.07,84.36,10.76,85.74-4.69C215.24,382.84,140.92,362.89,130.25,359.56Z" transform="translate(-0.35 -40.3)" opacity="0.58" fill="url(#linear-gradient-9)"/><path d="M368.5,364.89c3.18-3.74,6.4-7.52,10.46-10.28,4.39-3,9.55-4.61,14.66-6a260.51,260.51,0,0,1,37.93-7.63c2.49,4.14.92,9.55-1.52,13.72s-5.75,8-6.85,12.71c-1.84,7.86,2.56,17.43-2.73,23.54-2.55,3-6.64,4-10.48,4.68a118.23,118.23,0,0,1-28.05,1.65c-7.72-.46-26.4,3.26-29.4-5.73C349.33,382,363.24,371.09,368.5,364.89Z" transform="translate(-0.35 -40.3)" opacity="0.58" fill="url(#linear-gradient-10)"/><path d="M289.28,382.93c2.38,1.92,4.88,3.9,7.88,4.52,2.62.54,5.54,0,7.87,1.34a10.63,10.63,0,0,1,2.66,2.44A130.75,130.75,0,0,1,318,404.87c-3.49,2.93-8.51,3.37-13,2.44s-8.57-3-12.81-4.7c-15.17-6-32-6.74-47.29-12.54A149.87,149.87,0,0,1,228,382l-48.44-25.72c1.3-4.49,5.91-7.37,10.52-8.12s9.32.19,13.93,1a195.6,195.6,0,0,0,36.57,2.67c10-.2,16.06.71,22.06,8.59C269.41,369.25,280.63,376,289.28,382.93Z" transform="translate(-0.35 -40.3)" opacity="0.58" fill="url(#linear-gradient-11)"/><path d="M287.47,68.79c-10.28,6.8-12.6,20.64-14,32.88-6.43,2.18-13.83,1.32-19.68,4.76-6.79,4-9.37,12.53-10,20.38a11.18,11.18,0,0,1-.92,4.45c-1.66,3.14-5.82,3.73-9.35,4.08-8.14.82-17.25,3.19-21.1,10.4-1.43,2.68-1.9,6.1-.34,8.71,2.45,4.09,8.25,4.25,13,3.61a110.33,110.33,0,0,0,32-9.45c5.72-2.68,11.42-5.93,17.73-6.36,5.9-.39,11.63,1.72,17.29,3.42a128,128,0,0,0,29.88,5.21c7.16.39,14.46.15,21.3-2s13.23-6.39,16.84-12.58c1.8,5.58,7.07,9.48,12.67,11.2s11.59,1.59,17.45,1.46c6.7-.16,13.88-.48,19.23-4.52,4.25-3.22,6.63-8.32,8.44-13.34a27.83,27.83,0,0,0,2.07-9.94c-.26-10.32-9.85-17.58-18.49-23.22-6.37-4.16-13.2-8.46-20.81-8.58-3.85-.06-7.88,1-11.47-.47-6.22-2.46-7.61-10.41-10.8-16.3-4.89-9-15.22-14-25.39-15.4a26.41,26.41,0,0,0-11,.56c-4.23,1.25-5.31,4.6-8.57,6.3s-9.29.17-12.94.55A28.47,28.47,0,0,0,287.47,68.79Z" transform="translate(-0.35 -40.3)" fill="#fff"/><path d="M344.68,109.65a11.28,11.28,0,0,1,2.27-3.51c-2,4.37-4.08,8.88-4.34,13.69-.15,2.85.35,5.71.31,8.57a3.05,3.05,0,0,1-.34,1.58,1.12,1.12,0,0,1-1.42.46c-.68-.41.07-3.52.06-4.2a39.43,39.43,0,0,1,.32-5.64A38.61,38.61,0,0,1,344.68,109.65Z" transform="translate(-0.35 -40.3)" fill="#caa472"/><path d="M351.65,108a10.68,10.68,0,0,0,.47,2.94,11,11,0,0,1,.07,3,3.7,3.7,0,0,1-1.19,2.8,2.43,2.43,0,0,1-2.52,0,4.52,4.52,0,0,1-1.71-2,8.11,8.11,0,0,1,.52-7.92,3.46,3.46,0,0,1-1.42,1.59,18.62,18.62,0,0,1-3.86,2.35,6.29,6.29,0,0,1-4.41.31,1.77,1.77,0,0,1-.91-.59,2.12,2.12,0,0,1-.25-1.14,4.85,4.85,0,0,1,.18-1.78,5,5,0,0,1,1.05-1.56,7.49,7.49,0,0,1,1.78-1.64,7.33,7.33,0,0,1,2.85-.73,15.59,15.59,0,0,1,2-.17,7.41,7.41,0,0,1-5-3.48c-1-1.84-.69-4.53,1.11-5.64s4-.38,5.37,1a12.12,12.12,0,0,1,2.73,5.14,7.62,7.62,0,0,1,.87-4.77c.58-1.2,1.5-2.43,2.82-2.56,1.69-.17,3,1.67,3,3.37a9,9,0,0,1-2,4.6,7,7,0,0,1,2.9-1.94,7.32,7.32,0,0,1,3.24-.71,3.29,3.29,0,0,1,2.75,1.61c.78,1.53-.25,3.48-1.76,4.31a10,10,0,0,1-5,.81,8.29,8.29,0,0,1,3.57,2.81,3.24,3.24,0,0,1-.45,4.17,3.07,3.07,0,0,1-3.05.22,6.24,6.24,0,0,1-2.39-2.09A9.2,9.2,0,0,1,351.65,108Z" transform="translate(-0.35 -40.3)" fill="#caa472" opacity="0.42" style="isolation:isolate"/><circle cx="348.79" cy="63.99" r="4.22" fill="#caa472"/><path d="M321.23,107.89a9,9,0,0,1,1.78-2.75c-1.59,3.44-3.21,7-3.41,10.75-.12,2.25.27,4.49.24,6.74a2.2,2.2,0,0,1-.27,1.24.87.87,0,0,1-1.11.37c-.53-.33.06-2.77.05-3.3a31.4,31.4,0,0,1,.25-4.44A30.12,30.12,0,0,1,321.23,107.89Z" transform="translate(-0.35 -40.3)" fill="#caa472"/><path d="M326.71,106.58a8.09,8.09,0,0,0,.37,2.32,9,9,0,0,1,.05,2.38,2.86,2.86,0,0,1-.94,2.19,1.9,1.9,0,0,1-2,0,3.63,3.63,0,0,1-1.34-1.56,6.36,6.36,0,0,1,.41-6.22,2.76,2.76,0,0,1-1.12,1.25,14.73,14.73,0,0,1-3,1.85,5,5,0,0,1-3.47.24,1.34,1.34,0,0,1-.71-.47,1.58,1.58,0,0,1-.2-.89,3.89,3.89,0,0,1,.14-1.4,4.16,4.16,0,0,1,.82-1.22,4.38,4.38,0,0,1,3.65-1.87,14.18,14.18,0,0,1,1.6-.13,5.83,5.83,0,0,1-3.95-2.74,3.38,3.38,0,0,1,.87-4.43,3.62,3.62,0,0,1,4.22.77,9.51,9.51,0,0,1,2.14,4,6,6,0,0,1,.69-3.75,3.14,3.14,0,0,1,2.22-2c1.32-.13,2.37,1.31,2.33,2.65a7,7,0,0,1-1.55,3.62,5.36,5.36,0,0,1,2.28-1.53,5.8,5.8,0,0,1,2.54-.56,2.58,2.58,0,0,1,2.17,1.27,2.73,2.73,0,0,1-1.38,3.38,7.88,7.88,0,0,1-4,.64,6.46,6.46,0,0,1,2.8,2.21,2.55,2.55,0,0,1-.35,3.28,2.42,2.42,0,0,1-2.4.17,5,5,0,0,1-1.88-1.65A7.08,7.08,0,0,1,326.71,106.58Z" transform="translate(-0.35 -40.3)" fill="#caa472" opacity="0.42" style="isolation:isolate"/><circle cx="324.38" cy="63.39" r="3.32" fill="#caa472"/><path d="M298.29,103.56a9.77,9.77,0,0,1,2-3.06c-1.77,3.82-3.57,7.76-3.79,12-.13,2.5.3,5,.26,7.5a2.52,2.52,0,0,1-.29,1.38,1,1,0,0,1-1.24.4c-.59-.36.06-3.08.05-3.67a35.35,35.35,0,0,1,.28-4.93A33.71,33.71,0,0,1,298.29,103.56Z" transform="translate(-0.35 -40.3)" fill="#caa472"/><path d="M304.38,102.1a9.2,9.2,0,0,0,.41,2.58,9.79,9.79,0,0,1,.06,2.65,3.19,3.19,0,0,1-1,2.44,2.1,2.1,0,0,1-2.2,0,4,4,0,0,1-1.5-1.73,7.12,7.12,0,0,1,.45-6.92,3,3,0,0,1-1.24,1.39,16.12,16.12,0,0,1-3.36,2.06,5.63,5.63,0,0,1-3.87.27,1.55,1.55,0,0,1-.79-.53,1.83,1.83,0,0,1-.22-1,4.25,4.25,0,0,1,.16-1.55,4.43,4.43,0,0,1,.91-1.37A6.83,6.83,0,0,1,293.71,99a6.46,6.46,0,0,1,2.49-.64,15.43,15.43,0,0,1,1.79-.15,6.46,6.46,0,0,1-4.4-3,3.77,3.77,0,0,1,1-4.93,4,4,0,0,1,4.7.86,10.48,10.48,0,0,1,2.38,4.49,6.64,6.64,0,0,1,.76-4.17,3.5,3.5,0,0,1,2.47-2.24c1.47-.15,2.64,1.46,2.6,2.94a8,8,0,0,1-1.72,4,6,6,0,0,1,2.53-1.7,6.48,6.48,0,0,1,2.83-.62,2.88,2.88,0,0,1,2.41,1.41c.68,1.34-.23,3-1.54,3.77a8.92,8.92,0,0,1-4.39.71,7.29,7.29,0,0,1,3.12,2.45,2.86,2.86,0,0,1-.39,3.65,2.68,2.68,0,0,1-2.67.19,5.49,5.49,0,0,1-2.09-1.83A8,8,0,0,1,304.38,102.1Z" transform="translate(-0.35 -40.3)" fill="#caa472" opacity="0.42" style="isolation:isolate"/><circle cx="301.83" cy="58.58" r="3.69" fill="#caa472"/><path d="M357.9,132.55a72,72,0,0,1-7.84,3.28,21.53,21.53,0,0,1-11.35,1.08c.5,1-.38,2.24-1.45,2.57a6.26,6.26,0,0,1-3.31-.24c-17.83-4.4-36.83.28-54.9-2.92h0l-1.07-.2h.51l15.19.16a66.25,66.25,0,0,1-8.86-2.19,19,19,0,0,1,6.21-1,32.89,32.89,0,0,1-8-1.45,6.22,6.22,0,0,1-.68-.25c-1-.41-1.82-1.09-1.73-2.14a10,10,0,0,0,2.32.09c2.46-.21,3.27-1.69,3.79-3.61.64-2.3.88-5.24,3.09-7.43.39,1.12.79,2.24,1.18,3.35.57-1.06,1.26-2.24,2.44-2.55s2.61,1.06,1.89,2a27.71,27.71,0,0,1,3.41-2.89c.11.93.23,1.86.34,2.78a26.53,26.53,0,0,1,7.34-4.07c.18,1.43.36,2.85.53,4.29a10.62,10.62,0,0,1,5-2.22c.23.88.45,1.76.68,2.63l4.63-1.93c.28.9.55,1.79.82,2.69a60.17,60.17,0,0,0,6-2.33,8.56,8.56,0,0,0,.83,4.16c1-1.06,2.67-2.15,3.73-1.15.65.6.65,1.74,1.4,2.23,1.36.88,2.92-1.42,4.51-1.13,1.27.23,1.65,1.84,1.74,3.13l3.61-1.69c.24.85.49,1.68.73,2.52a12.44,12.44,0,0,1,4.73-1.83l.42,2.06a6.6,6.6,0,0,1,3.82-1.58c1.4.06,2.79,1.5,2.24,2.79l1.53-.7a2.76,2.76,0,0,0,1.4,2.78A8.25,8.25,0,0,0,357.9,132.55Z" transform="translate(-0.35 -40.3)" fill="#caa472" opacity="0.42" style="isolation:isolate"/><path d="M338.71,136.91c.5,1-.38,2.24-1.45,2.57a6.26,6.26,0,0,1-3.31-.24c-17.83-4.4-36.83.28-54.9-2.92h0l-.07,0a4,4,0,0,1-.49-.16l15.19.16a66.25,66.25,0,0,1-8.86-2.19,19,19,0,0,1,6.21-1,32.89,32.89,0,0,1-8-1.45,6.22,6.22,0,0,1-.68-.25,16.69,16.69,0,0,0,.59-2c.48-2.1.93-4.51,2.82-6.38.33.93.65,1.85,1,2.77.08.2.14.39.21.59.57-1.07,1.26-2.25,2.44-2.56s2.61,1.06,1.9,2a26.18,26.18,0,0,1,3.41-2.89c.11.93.21,1.85.33,2.78a26.94,26.94,0,0,1,7.34-4.07l.53,4.28a10.77,10.77,0,0,1,5-2.21c.24.88.46,1.75.69,2.64l4.63-1.94c.28.9.55,1.79.82,2.69a57.81,57.81,0,0,0,6-2.33,8.45,8.45,0,0,0,.83,4.16c1-1.06,2.67-2.14,3.73-1.16.65.61.65,1.75,1.4,2.24,1.36.88,2.92-1.41,4.51-1.13,1.28.24,1.64,1.85,1.74,3.14l3.61-1.69c.24.84.49,1.67.73,2.51a12.44,12.44,0,0,1,4.73-1.83c.14.69.28,1.37.41,2.06a6.58,6.58,0,0,1,3.83-1.57c1.4,0,2.79,1.49,2.24,2.78l1.53-.7a2.52,2.52,0,0,0,.79,2.29A21.53,21.53,0,0,1,338.71,136.91Z" transform="translate(-0.35 -40.3)" fill="#caa472" opacity="0.42" style="isolation:isolate"/></svg>